<svg width="512" height="512" viewBox="0 0 512 512" fill="none" xmlns="http://www.w3.org/2000/svg">
<rect width="512" height="512" fill="#D9D9D9"/>
<mask id="mask0_6_91" style="mask-type:alpha" maskUnits="userSpaceOnUse" x="0" y="0" width="512" height="512">
<rect width="512" height="512" fill="#D9D9D9"/>
</mask>
<g mask="url(#mask0_6_91)">
<mask id="mask1_6_91" style="mask-type:luminance" maskUnits="userSpaceOnUse" x="75" y="-30" width="362" height="542">
<path d="M436.691 512L436.691 -30L75.0001 -30L75.0001 512L436.691 512Z" fill="white"/>
</mask>
<g mask="url(#mask1_6_91)">
<path d="M328.418 376.199C329.748 381.318 332.793 385.267 336.774 387.037C338.453 387.784 340.285 388.136 342.215 388.079C348.602 387.892 353.347 385.608 355.937 381.475C358.685 377.091 358.805 370.842 356.251 365.169C352.233 356.252 337.744 356.73 336.677 356.778C334.262 357.628 332.277 359.074 330.776 361.078C327.894 364.911 326.991 370.704 328.418 376.199Z" fill="#CCB39B" stroke="black" stroke-width="2" stroke-miterlimit="10" stroke-linecap="round"/>
<path d="M335.041 297.231L328.552 303.567C328.478 303.64 328.348 303.792 328.189 303.976C327.376 304.919 326.943 305.362 326.582 305.491C323.618 308.389 321.13 311.082 320.557 314.539C320.311 316.027 320.429 317.697 320.93 319.793C322.091 324.649 324.619 328.907 326.534 331.623C327.318 332.736 328.973 333.344 330.301 333.832L330.572 333.932C333.741 335.103 337.15 335.532 340.433 335.172C341.501 335.054 342.158 334.585 342.989 333.992C343.225 333.824 343.47 333.649 343.736 333.473C345.337 332.415 346.623 331.543 347.784 330.728C352.565 327.374 357.942 323.191 361.575 317.605C363.339 314.895 363.852 311.806 363.103 308.424C361.69 302.054 356.175 296.332 353.536 294.684C353.194 294.471 352.804 294.33 352.503 294.231C348.807 293.014 344.269 293.648 340.265 294.208L339.343 294.336C339.139 294.364 338.916 294.382 338.687 294.401C338.2 294.441 337.697 294.482 337.331 294.626C337.154 294.695 337.041 294.75 336.997 294.788L336.996 294.789C336.976 294.806 336.961 294.833 336.91 294.932C336.856 295.038 336.788 295.169 336.673 295.343C336.204 296.046 335.681 296.607 335.041 297.231Z" fill="#CCB39B" stroke="black" stroke-width="2" stroke-miterlimit="10" stroke-linecap="round"/>
<path d="M330.253 334.792L329.985 334.694C328.536 334.161 326.732 333.499 325.783 332.152C323.821 329.37 321.232 325.004 320.037 320.006C319.507 317.787 319.384 316.002 319.651 314.39C320.326 310.316 323.624 307.097 326.032 304.746L326.166 304.615H326.295C326.55 304.472 327.207 303.71 327.494 303.377C327.675 303.167 327.826 302.994 327.911 302.912L334.399 296.576C334.885 296.102 335.277 295.687 335.631 295.221L167.655 372.422L159.661 380.082C160.207 385.149 160.212 385.635 159.768 392.603L160.764 401.527C161.37 402.381 166.646 408.308 172.721 418.932C178.735 429.448 187.684 446.517 196.168 468.116C187.707 446.577 179.607 430.361 172.721 418.932C165.966 407.721 160.88 401.689 160.835 401.626L160.764 401.527L160.026 390.573C160.003 390.61 159.92 393.959 159.896 393.995C157.328 397.844 146.245 404.636 145.775 404.923C145.888 404.853 158.241 397.098 159.896 393.995C160.123 393.569 159.605 392.561 159.762 391.957L160.026 390.573C160.6 386.157 159.548 378.242 159.202 376.241C157.07 377.103 149.366 379.949 140.012 375.553C149.865 380.184 158.172 376.71 159.202 376.241L168.703 361.867V312.493C168.703 310.543 166.653 307.717 164.259 307.199C162.479 306.813 160.983 307.831 159.931 310.142C156.581 317.509 127.947 350.36 118.47 356.673C112.384 360.724 112.741 369.816 113.154 380.343C113.374 385.952 113.602 391.752 112.952 397.599C112.175 404.583 110.382 412.164 107.623 420.132C104.921 427.937 103.934 436.057 104.69 444.267L109.253 493.802L112.14 524.09L114.997 562.626H251.839C252.257 560.822 255.005 552.848 273.011 523.413C277.138 516.668 281.591 508.818 285.102 502.243C278.599 483.301 248.895 462.83 248.595 462.622C248.893 462.829 277.964 483.239 285.102 502.243C291.398 490.341 295.36 481.181 297.584 475.549C299.834 469.86 302.938 464.52 306.81 459.679L309.71 456.083L344.626 430.26C344.332 430.293 341.257 432.613 341.188 432.329C340.743 430.475 338.94 429.178 336.797 426.976C332.104 422.15 327.152 415.221 328.788 408.623C329.726 404.83 332.195 402.209 336.128 400.829L335.081 400.827V387.742C332.027 385.803 328.9 381.702 327.53 376.43C326.043 370.707 326.987 364.656 329.987 360.607C334.581 344.069 337.933 338.156 339.398 336.178C338.984 336.201 338.569 336.214 338.153 336.214C335.486 336.214 332.795 335.733 330.253 334.792Z" fill="#CCB39B"/>
<path d="M160.764 401.527L159.768 392.603C160.212 385.635 160.207 385.149 159.661 380.082L167.655 372.422L335.631 295.221C335.277 295.687 334.885 296.102 334.399 296.576L327.911 302.912C327.826 302.994 327.675 303.167 327.494 303.377C327.207 303.71 326.55 304.472 326.295 304.615H326.166L326.032 304.746C323.624 307.097 320.326 310.316 319.651 314.39C319.384 316.002 319.507 317.787 320.037 320.006C321.232 325.004 323.821 329.37 325.783 332.152C326.732 333.499 328.536 334.161 329.985 334.694L330.253 334.792C332.795 335.733 335.486 336.214 338.153 336.214C338.569 336.214 338.984 336.201 339.398 336.178C337.933 338.156 334.581 344.069 329.987 360.607C326.987 364.656 326.043 370.707 327.53 376.43C328.9 381.702 332.027 385.803 335.081 387.742V400.827L336.128 400.829C332.195 402.209 329.726 404.83 328.788 408.623C327.152 415.221 332.104 422.15 336.797 426.976C338.94 429.178 340.743 430.475 341.188 432.329C341.257 432.613 344.332 430.293 344.626 430.26L309.71 456.083L306.81 459.679C302.938 464.52 299.834 469.86 297.584 475.549C295.36 481.181 291.398 490.341 285.102 502.243M160.764 401.527C161.37 402.381 166.646 408.308 172.721 418.932M160.764 401.527L160.835 401.626C160.88 401.689 165.966 407.721 172.721 418.932M160.764 401.527L160.026 390.573M172.721 418.932C178.735 429.448 187.684 446.517 196.168 468.116C187.707 446.577 179.607 430.361 172.721 418.932ZM160.026 390.573C160.003 390.61 159.92 393.959 159.896 393.995M160.026 390.573L159.762 391.957C159.605 392.561 160.123 393.569 159.896 393.995M160.026 390.573C160.6 386.157 159.548 378.242 159.202 376.241M159.896 393.995C157.328 397.844 146.245 404.636 145.775 404.923C145.888 404.853 158.241 397.098 159.896 393.995ZM159.202 376.241C157.07 377.103 149.366 379.949 140.012 375.553C149.865 380.184 158.172 376.71 159.202 376.241ZM159.202 376.241L168.703 361.867V312.493C168.703 310.543 166.653 307.717 164.259 307.199C162.479 306.813 160.983 307.831 159.931 310.142C156.581 317.509 127.947 350.36 118.47 356.673C112.384 360.724 112.741 369.816 113.154 380.343C113.374 385.952 113.602 391.752 112.952 397.599C112.175 404.583 110.382 412.164 107.623 420.132C104.921 427.937 103.934 436.057 104.69 444.267L109.253 493.802L112.14 524.09L114.997 562.626H251.839C252.257 560.822 255.005 552.848 273.011 523.413C277.138 516.668 281.591 508.818 285.102 502.243M285.102 502.243C278.599 483.301 248.895 462.83 248.595 462.622C248.893 462.829 277.964 483.239 285.102 502.243Z" stroke="black" stroke-width="2" stroke-miterlimit="10" stroke-linecap="round"/>
<path d="M336.73 401.593C332.933 402.837 330.561 405.277 329.679 408.843C328.111 415.164 330.404 423.734 334.898 428.354C336.579 430.082 339.298 431.985 342.704 431.245C345.174 430.709 347.586 428.867 349.873 425.771C358.108 414.62 358.272 412.511 355.448 406.704C352.509 400.661 348.173 399.963 340.694 400.764C339.345 400.907 338.093 401.158 336.968 401.512L336.73 401.593Z" fill="#CCB39B" stroke="black" stroke-width="2" stroke-miterlimit="10" stroke-linecap="round"/>
</g>
<mask id="mask2_6_91" style="mask-type:luminance" maskUnits="userSpaceOnUse" x="75" y="-30" width="362" height="542">
<path d="M436.691 512L436.691 -30L75.0001 -30L75.0001 512L436.691 512Z" fill="white"/>
</mask>
<g mask="url(#mask2_6_91)">
<path d="M332.675 144.75V436.777C332.675 437.804 332.597 438.813 332.45 439.804C332.409 440.047 332.368 440.294 332.322 440.533C332.088 441.762 331.739 442.949 331.289 444.087C331.202 444.321 331.106 444.555 331.005 444.784C330.372 446.219 329.573 447.572 328.636 448.814C328.545 448.929 328.453 449.053 328.361 449.167C327.714 449.993 326.993 450.759 326.227 451.474C325.915 451.763 325.593 452.038 325.263 452.304C325.148 452.405 325.029 452.497 324.909 452.584C324.556 452.859 324.193 453.12 323.821 453.372C323.798 453.391 323.775 453.409 323.753 453.423C323.523 453.57 323.294 453.717 323.064 453.859C322.807 454.015 322.546 454.166 322.284 454.313C322.018 454.455 321.751 454.597 321.48 454.73C321.347 454.794 321.21 454.863 321.077 454.923C320.939 454.991 320.801 455.056 320.663 455.11C320.246 455.294 319.823 455.459 319.392 455.615C319.107 455.721 318.818 455.817 318.529 455.904C318.382 455.95 318.235 455.996 318.088 456.037C317.643 456.156 317.193 456.271 316.739 456.362C316.592 456.395 316.44 456.427 316.284 456.454C316.128 456.482 315.977 456.509 315.825 456.532C315.518 456.583 315.206 456.629 314.894 456.661C314.673 456.693 314.453 456.707 314.233 456.725C314.049 456.739 313.865 456.748 313.682 456.757C313.337 456.775 312.998 456.784 312.649 456.784H190.781C190.428 456.784 190.083 456.775 189.739 456.757C189.555 456.748 189.372 456.738 189.188 456.725C188.83 456.697 188.477 456.665 188.119 456.624C188.256 456.638 188.389 456.647 188.527 456.661C178.539 455.537 170.749 447.049 170.749 436.777V144.75C170.749 134.069 179.173 125.315 189.739 124.77H189.753C190.093 124.751 190.433 124.742 190.782 124.742H312.648C312.997 124.742 313.332 124.751 313.676 124.77H313.681C313.865 124.779 314.048 124.788 314.232 124.802C314.406 124.815 314.59 124.834 314.769 124.847C324.817 125.911 332.675 134.432 332.675 144.75Z" fill="#F4F4F4" stroke="#262626" stroke-width="2" stroke-miterlimit="10"/>
<path d="M312.648 122H190.777C178.2 122 168 132.185 168 144.75V436.777C168 449.342 178.2 459.527 190.777 459.527H312.648C325.226 459.527 335.425 449.342 335.425 436.777V144.75C335.425 132.185 325.226 122 312.648 122ZM326.226 451.475C325.914 451.764 325.593 452.039 325.262 452.305C325.148 452.405 325.028 452.497 324.909 452.584C324.555 452.859 324.193 453.121 323.821 453.373C323.798 453.391 323.775 453.409 323.752 453.423C323.523 453.57 323.293 453.717 323.064 453.859C322.806 454.015 322.545 454.166 322.283 454.313C322.017 454.456 321.751 454.597 321.48 454.731C321.347 454.795 321.209 454.863 321.076 454.923C320.938 454.992 320.801 455.056 320.663 455.111C320.245 455.294 319.823 455.46 319.392 455.615C319.107 455.721 318.818 455.817 318.529 455.905C318.382 455.951 318.235 455.996 318.088 456.037C317.642 456.157 317.193 456.271 316.738 456.363C316.591 456.395 316.44 456.427 316.284 456.455C316.128 456.482 315.976 456.51 315.825 456.533C315.517 456.583 315.205 456.629 314.893 456.661C314.673 456.693 314.452 456.707 314.232 456.725C314.049 456.739 313.865 456.748 313.681 456.757C313.337 456.776 312.997 456.785 312.649 456.785H190.782C190.428 456.785 190.084 456.776 189.739 456.757C189.556 456.748 189.372 456.739 189.189 456.725C188.831 456.698 188.477 456.666 188.119 456.624C188.257 456.638 188.39 456.647 188.528 456.661C178.539 455.537 170.75 447.049 170.75 436.777V144.75C170.75 134.069 179.173 125.315 189.74 124.77H189.754C190.093 124.751 190.433 124.742 190.782 124.742H312.649C312.998 124.742 313.333 124.751 313.677 124.77H313.681C313.865 124.779 314.049 124.788 314.232 124.802C314.407 124.815 314.59 124.834 314.769 124.847C324.817 125.911 332.676 134.432 332.676 144.75V436.777C332.676 437.804 332.597 438.813 332.451 439.804C332.41 440.047 332.368 440.294 332.323 440.533C332.088 441.762 331.74 442.949 331.29 444.087C331.203 444.321 331.106 444.555 331.006 444.784C330.372 446.219 329.573 447.572 328.637 448.814C328.545 448.929 328.453 449.053 328.362 449.167C327.714 449.993 326.993 450.759 326.226 451.475Z" fill="#F4F4F4" stroke="#262626" stroke-width="2" stroke-miterlimit="10"/>
</g>
<path d="M328.418 376.199C329.748 381.317 332.793 385.267 336.774 387.036C338.453 387.784 340.285 388.136 342.215 388.079C348.602 387.891 353.347 385.608 355.937 381.475C358.685 377.091 358.805 370.842 356.251 365.169C352.233 356.252 337.744 356.73 336.677 356.778C334.262 357.628 332.277 359.074 330.776 361.078C327.894 364.911 326.991 370.704 328.418 376.199Z" fill="#CCB39B" stroke="black" stroke-width="2" stroke-miterlimit="10" stroke-linecap="round"/>
<path d="M335.041 297.231L328.552 303.567C328.478 303.64 328.348 303.792 328.189 303.976C327.376 304.919 326.943 305.362 326.582 305.491C323.618 308.389 321.13 311.082 320.557 314.539C320.311 316.027 320.429 317.697 320.93 319.793C322.091 324.649 324.619 328.907 326.534 331.623C327.318 332.736 328.973 333.344 330.301 333.832L330.572 333.932C333.741 335.103 337.15 335.532 340.433 335.172C341.501 335.054 342.158 334.585 342.989 333.992C343.225 333.824 343.47 333.649 343.736 333.473C345.337 332.415 346.623 331.543 347.784 330.728C352.565 327.374 357.942 323.191 361.575 317.605C363.339 314.895 363.852 311.806 363.103 308.424C361.69 302.054 356.175 296.332 353.536 294.684C353.194 294.471 352.804 294.33 352.503 294.231C348.807 293.014 344.269 293.648 340.265 294.208L339.343 294.336C339.139 294.364 338.916 294.382 338.687 294.401C338.2 294.441 337.697 294.482 337.331 294.626C337.154 294.695 337.041 294.75 336.997 294.788L336.996 294.789C336.976 294.806 336.961 294.833 336.91 294.932C336.856 295.038 336.788 295.169 336.673 295.343C336.204 296.046 335.681 296.607 335.041 297.231Z" fill="#CCB39B" stroke="black" stroke-width="2" stroke-miterlimit="10" stroke-linecap="round"/>
<path d="M336.73 401.593C332.933 402.837 330.561 405.277 329.679 408.843C328.112 415.164 330.404 423.734 334.899 428.354C336.58 430.082 339.299 431.985 342.704 431.245C345.174 430.709 347.586 428.867 349.874 425.771C358.108 414.62 358.272 412.511 355.449 406.704C352.509 400.661 348.173 399.963 340.694 400.764C339.345 400.907 338.093 401.158 336.968 401.512L336.73 401.593Z" fill="#CCB39B" stroke="black" stroke-width="2" stroke-miterlimit="10" stroke-linecap="round"/>
<circle cx="256" cy="133" r="3" fill="black"/>
<path d="M219.176 289.712H238.784V291.344H219.176V289.712ZM228.968 293.12C233.624 293.12 236.408 294.512 236.408 296.984C236.408 299.48 233.624 300.872 228.968 300.872C224.312 300.872 221.528 299.48 221.528 296.984C221.528 294.512 224.312 293.12 228.968 293.12ZM228.968 294.68C225.584 294.68 223.544 295.52 223.544 296.984C223.544 298.496 225.584 299.312 228.968 299.312C232.376 299.312 234.392 298.496 234.392 296.984C234.392 295.52 232.376 294.68 228.968 294.68ZM228.992 279.704C233.672 279.704 236.624 281.264 236.624 283.856C236.624 286.424 233.672 287.984 228.992 287.984C224.288 287.984 221.36 286.424 221.36 283.856C221.36 281.264 224.288 279.704 228.992 279.704ZM228.992 281.288C225.536 281.288 223.4 282.248 223.4 283.856C223.4 285.464 225.536 286.4 228.992 286.4C232.424 286.4 234.584 285.464 234.584 283.856C234.584 282.248 232.424 281.288 228.992 281.288ZM247.422 290.096H249.414V294.92H247.422V290.096ZM257.046 279.176H259.038V295.688H257.046V279.176ZM244.23 298.76H259.566V300.392H244.23V298.76ZM244.23 294.08H246.222V299.216H244.23V294.08ZM241.422 290.84L241.158 289.208C245.166 289.208 250.542 289.16 255.15 288.56L255.294 290.024C250.614 290.768 245.358 290.84 241.422 290.84ZM252.63 291.992H257.55V293.456H252.63V291.992ZM248.214 280.064C251.382 280.064 253.542 281.552 253.542 283.832C253.542 286.136 251.382 287.624 248.214 287.624C245.022 287.624 242.862 286.136 242.862 283.832C242.862 281.552 245.022 280.064 248.214 280.064ZM248.214 281.552C246.174 281.552 244.758 282.44 244.758 283.832C244.758 285.224 246.174 286.112 248.214 286.112C250.23 286.112 251.646 285.224 251.646 283.832C251.646 282.44 250.23 281.552 248.214 281.552ZM263.332 290.048H282.94V291.656H263.332V290.048ZM272.164 287.024H274.132V290.576H272.164V287.024ZM273.124 293.264C277.78 293.264 280.54 294.632 280.54 297.056C280.54 299.48 277.78 300.824 273.124 300.824C268.492 300.824 265.708 299.48 265.708 297.056C265.708 294.632 268.492 293.264 273.124 293.264ZM273.124 294.8C269.716 294.8 267.724 295.616 267.724 297.056C267.724 298.496 269.716 299.312 273.124 299.312C276.532 299.312 278.524 298.496 278.524 297.056C278.524 295.616 276.532 294.8 273.124 294.8ZM265.948 279.728H267.916V282.128H278.404V279.728H280.396V287.744H265.948V279.728ZM267.916 283.688V286.136H278.404V283.688H267.916Z" fill="black"/>
</g>
</svg>
